<svg width="39" height="39" viewBox="0 0 39 39" fill="none" xmlns="http://www.w3.org/2000/svg">
<g clip-path="url(#clip0_67_1175)">
<path d="M32.5 19.5C32.5 12.3337 26.6663 6.5 19.5 6.5C12.3338 6.5 6.5 12.3337 6.5 19.5C6.5 26.6662 12.3337 32.5 19.5 32.5C26.6663 32.5 32.5 26.6663 32.5 19.5ZM35.75 19.5C35.75 28.47 28.47 35.75 19.5 35.75C10.53 35.75 3.25 28.47 3.25 19.5C3.25 10.53 10.53 3.25 19.5 3.25C28.47 3.25 35.75 10.53 35.75 19.5ZM14.625 19.5L21.125 26L21.125 13L14.625 19.5Z" fill="black" fill-opacity="0.41"/>
</g>
<defs>
<clipPath id="clip0_67_1175">
<rect width="39" height="39" fill="white" transform="matrix(4.37114e-08 -1 -1 -4.37114e-08 39 39)"/>
</clipPath>
</defs>
</svg>
