<svg width="39" height="39" viewBox="0 0 39 39" fill="none" xmlns="http://www.w3.org/2000/svg">
<g clip-path="url(#clip0_67_1172)">
<path d="M6.5 19.5C6.5 12.3337 12.3337 6.5 19.5 6.5C26.6662 6.5 32.5 12.3337 32.5 19.5C32.5 26.6662 26.6663 32.5 19.5 32.5C12.3337 32.5 6.5 26.6663 6.5 19.5ZM3.25 19.5C3.25 28.47 10.53 35.75 19.5 35.75C28.47 35.75 35.75 28.47 35.75 19.5C35.75 10.53 28.47 3.25 19.5 3.25C10.53 3.25 3.25 10.53 3.25 19.5ZM24.375 19.5L17.875 26L17.875 13L24.375 19.5Z" fill="black" fill-opacity="0.41"/>
</g>
<defs>
<clipPath id="clip0_67_1172">
<rect width="39" height="39" fill="white" transform="translate(0 39) rotate(-90)"/>
</clipPath>
</defs>
</svg>
